<svg width="71" height="99" viewBox="0 0 71 99" fill="none" xmlns="http://www.w3.org/2000/svg">
<path d="M14.5 77C14.5 65.1259 24.1259 55.5 36 55.5C47.8741 55.5 57.5 65.1259 57.5 77C57.5 88.8741 47.8741 98.5 36 98.5C24.1259 98.5 14.5 88.8741 14.5 77Z" fill="#2C2C2C"/>
<path d="M14.5 77C14.5 65.1259 24.1259 55.5 36 55.5C47.8741 55.5 57.5 65.1259 57.5 77C57.5 88.8741 47.8741 98.5 36 98.5C24.1259 98.5 14.5 88.8741 14.5 77Z" stroke="#2C2C2C" stroke-linecap="round"/>
<g clip-path="url(#clip0_1_393)">
<path d="M36 85.3333C40.6024 85.3333 44.3333 81.6024 44.3333 77C44.3333 72.3976 40.6024 68.6667 36 68.6667C31.3976 68.6667 27.6667 72.3976 27.6667 77C27.6667 81.6024 31.3976 85.3333 36 85.3333Z" stroke="#F5F5F5" stroke-width="2" stroke-linecap="round" stroke-linejoin="round"/>
<path d="M36 82C38.7614 82 41 79.7614 41 77C41 74.2386 38.7614 72 36 72C33.2386 72 31 74.2386 31 77C31 79.7614 33.2386 82 36 82Z" stroke="#F5F5F5" stroke-width="2" stroke-linecap="round" stroke-linejoin="round"/>
<path d="M36 78.6667C36.9205 78.6667 37.6667 77.9205 37.6667 77C37.6667 76.0795 36.9205 75.3333 36 75.3333C35.0795 75.3333 34.3333 76.0795 34.3333 77C34.3333 77.9205 35.0795 78.6667 36 78.6667Z" stroke="#F5F5F5" stroke-width="2" stroke-linecap="round" stroke-linejoin="round"/>
</g>
<g filter="url(#filter0_dd_1_393)">
<mask id="path-3-inside-1_1_393" fill="white">
<path d="M4 11C4 6.58172 7.58172 3 12 3H59C63.4183 3 67 6.58172 67 11V53C67 57.4183 63.4183 61 59 61H12C7.58172 61 4 57.4183 4 53V11Z"/>
</mask>
<path d="M4 11C4 6.58172 7.58172 3 12 3H59C63.4183 3 67 6.58172 67 11V53C67 57.4183 63.4183 61 59 61H12C7.58172 61 4 57.4183 4 53V11Z" fill="white" shape-rendering="crispEdges"/>
<path d="M12 4H59V2H12V4ZM66 11V53H68V11H66ZM59 60H12V62H59V60ZM5 53V11H3V53H5ZM12 60C8.13401 60 5 56.866 5 53H3C3 57.9706 7.02944 62 12 62V60ZM66 53C66 56.866 62.866 60 59 60V62C63.9706 62 68 57.9706 68 53H66ZM59 4C62.866 4 66 7.13401 66 11H68C68 6.02944 63.9706 2 59 2V4ZM12 2C7.02944 2 3 6.02944 3 11H5C5 7.13401 8.13401 4 12 4V2Z" fill="#3B383E" fill-opacity="0.08" mask="url(#path-3-inside-1_1_393)"/>
<path d="M36 55.05L41.6569 60.7069L36 66.3637L30.3431 60.7069L36 55.05Z" fill="white"/>
<path fill-rule="evenodd" clip-rule="evenodd" d="M30.3431 60.7069L36 66.3637L41.6569 60.7069L40.9497 59.9998L36 64.9495L31.0503 59.9998L30.3431 60.7069Z" fill="#D9D9D9"/>
<path d="M24.7884 16.3636H27.3679L30.8224 24.7955H30.9588L34.4134 16.3636H36.9929V28H34.9702V20.0057H34.8622L31.6463 27.9659H30.1349L26.919 19.9886H26.8111V28H24.7884V16.3636ZM40.4759 31.2727C40.1955 31.2727 39.9361 31.25 39.6974 31.2045C39.4626 31.1629 39.2751 31.1136 39.1349 31.0568L39.6122 29.4545C39.9115 29.5417 40.1785 29.5833 40.4134 29.5795C40.6482 29.5758 40.8546 29.5019 41.0327 29.358C41.2145 29.2178 41.3679 28.983 41.4929 28.6534L41.669 28.1818L38.5043 19.2727H40.6861L42.6974 25.8636H42.7884L44.8054 19.2727H46.9929L43.4986 29.0568C43.3357 29.5189 43.1198 29.9148 42.8509 30.2443C42.5819 30.5777 42.2524 30.8314 41.8622 31.0057C41.4759 31.1837 41.0137 31.2727 40.4759 31.2727Z" fill="black"/>
<path d="M17.1381 38.9119V37.8182H24.7744V38.9119H21.5727V48H20.3398V38.9119H17.1381ZM27.7263 48.179C27.2424 48.179 26.8032 48.0878 26.4088 47.9055C26.0144 47.7199 25.7012 47.4531 25.4692 47.1051C25.2372 46.7538 25.1212 46.3295 25.1212 45.8324C25.1212 45.3949 25.2074 45.0402 25.3797 44.7685C25.5521 44.4934 25.7824 44.2779 26.0708 44.1222C26.3591 43.9664 26.6773 43.8504 27.0253 43.7741C27.3766 43.6946 27.7296 43.6316 28.0843 43.5852C28.5483 43.5256 28.9244 43.4808 29.2128 43.451C29.5045 43.4179 29.7166 43.3632 29.8492 43.2869C29.9851 43.2107 30.053 43.0781 30.053 42.8892V42.8494C30.053 42.3589 29.9188 41.9777 29.6503 41.706C29.3852 41.4342 28.9825 41.2983 28.4422 41.2983C27.8821 41.2983 27.4429 41.4209 27.1247 41.6662C26.8066 41.9115 26.5828 42.1733 26.4536 42.4517L25.3399 42.054C25.5388 41.59 25.8039 41.2287 26.1354 40.9702C26.4701 40.7083 26.8347 40.526 27.2291 40.4233C27.6269 40.3172 28.018 40.2642 28.4024 40.2642C28.6477 40.2642 28.9294 40.294 29.2476 40.3537C29.5691 40.41 29.879 40.5277 30.1773 40.7067C30.4789 40.8857 30.7291 41.1558 30.928 41.517C31.1269 41.8783 31.2263 42.3622 31.2263 42.9688V48H30.053V46.9659H29.9933C29.9138 47.1316 29.7812 47.3089 29.5956 47.4979C29.41 47.6868 29.1631 47.8475 28.8548 47.9801C28.5466 48.1127 28.1704 48.179 27.7263 48.179ZM27.9053 47.125C28.3693 47.125 28.7604 47.0339 29.0786 46.8516C29.4001 46.6693 29.642 46.4339 29.8044 46.1456C29.9701 45.8572 30.053 45.554 30.053 45.2358V44.1619C30.0033 44.2216 29.8939 44.2763 29.7249 44.326C29.5592 44.3724 29.3669 44.4138 29.1482 44.4503C28.9327 44.4834 28.7223 44.5133 28.5168 44.5398C28.3146 44.563 28.1505 44.5829 28.0246 44.5994C27.7197 44.6392 27.4346 44.7038 27.1695 44.7933C26.9076 44.8795 26.6955 45.0104 26.5331 45.1861C26.374 45.3584 26.2945 45.5937 26.2945 45.892C26.2945 46.2997 26.4453 46.608 26.7469 46.8168C27.0518 47.0223 27.4379 47.125 27.9053 47.125ZM38.7769 42.0739L37.7229 42.3722C37.6566 42.1965 37.5589 42.0258 37.4296 41.8601C37.3037 41.6911 37.1313 41.5518 36.9126 41.4425C36.6938 41.3331 36.4137 41.2784 36.0724 41.2784C35.605 41.2784 35.2156 41.3861 34.904 41.6016C34.5958 41.8137 34.4417 42.0838 34.4417 42.4119C34.4417 42.7036 34.5477 42.9339 34.7599 43.103C34.972 43.272 35.3034 43.4129 35.7542 43.5256L36.8877 43.804C37.5705 43.9697 38.0792 44.2232 38.414 44.5646C38.7487 44.9027 38.9161 45.3385 38.9161 45.8722C38.9161 46.3097 38.7902 46.7008 38.5383 47.0455C38.2897 47.3902 37.9417 47.6619 37.4942 47.8608C37.0468 48.0597 36.5264 48.1591 35.9331 48.1591C35.1543 48.1591 34.5096 47.9901 33.9992 47.652C33.4888 47.3139 33.1656 46.8201 33.0297 46.1705L34.1434 45.892C34.2494 46.303 34.45 46.6113 34.7449 46.8168C35.0432 47.0223 35.4327 47.125 35.9133 47.125C36.4601 47.125 36.8943 47.009 37.2158 46.777C37.5406 46.5417 37.703 46.2599 37.703 45.9318C37.703 45.6667 37.6102 45.4446 37.4246 45.2656C37.239 45.0833 36.954 44.9474 36.5695 44.858L35.2968 44.5597C34.5974 44.3939 34.0837 44.1371 33.7556 43.7891C33.4308 43.4377 33.2684 42.9986 33.2684 42.4716C33.2684 42.0407 33.3894 41.6596 33.6313 41.3281C33.8766 40.9967 34.2097 40.7365 34.6306 40.5476C35.0548 40.3587 35.5354 40.2642 36.0724 40.2642C36.828 40.2642 37.4213 40.4299 37.8522 40.7614C38.2864 41.0928 38.5946 41.5303 38.7769 42.0739ZM41.776 45.2159L41.7561 43.7642H41.9948L45.3357 40.3636H46.7874L43.2277 43.9631H43.1283L41.776 45.2159ZM40.6823 48V37.8182H41.8556V48H40.6823ZM45.5345 48L42.5516 44.2216L43.3868 43.4062L47.026 48H45.5345ZM53.7066 42.0739L52.6526 42.3722C52.5863 42.1965 52.4885 42.0258 52.3593 41.8601C52.2333 41.6911 52.061 41.5518 51.8422 41.4425C51.6235 41.3331 51.3434 41.2784 51.002 41.2784C50.5347 41.2784 50.1453 41.3861 49.8337 41.6016C49.5255 41.8137 49.3714 42.0838 49.3714 42.4119C49.3714 42.7036 49.4774 42.9339 49.6895 43.103C49.9017 43.272 50.2331 43.4129 50.6839 43.5256L51.8174 43.804C52.5001 43.9697 53.0089 44.2232 53.3437 44.5646C53.6784 44.9027 53.8458 45.3385 53.8458 45.8722C53.8458 46.3097 53.7198 46.7008 53.468 47.0455C53.2194 47.3902 52.8714 47.6619 52.4239 47.8608C51.9765 48.0597 51.4561 48.1591 50.8628 48.1591C50.084 48.1591 49.4393 47.9901 48.9289 47.652C48.4185 47.3139 48.0953 46.8201 47.9594 46.1705L49.0731 45.892C49.1791 46.303 49.3796 46.6113 49.6746 46.8168C49.9729 47.0223 50.3624 47.125 50.843 47.125C51.3898 47.125 51.824 47.009 52.1455 46.777C52.4703 46.5417 52.6327 46.2599 52.6327 45.9318C52.6327 45.6667 52.5399 45.4446 52.3543 45.2656C52.1687 45.0833 51.8837 44.9474 51.4992 44.858L50.2265 44.5597C49.5271 44.3939 49.0134 44.1371 48.6853 43.7891C48.3605 43.4377 48.1981 42.9986 48.1981 42.4716C48.1981 42.0407 48.319 41.6596 48.561 41.3281C48.8063 40.9967 49.1394 40.7365 49.5603 40.5476C49.9845 40.3587 50.4651 40.2642 51.002 40.2642C51.7577 40.2642 52.351 40.4299 52.7819 40.7614C53.2161 41.0928 53.5243 41.5303 53.7066 42.0739Z" fill="black"/>
</g>
<defs>
<filter id="filter0_dd_1_393" x="0" y="0" width="71" height="71.3637" filterUnits="userSpaceOnUse" color-interpolation-filters="sRGB">
<feFlood flood-opacity="0" result="BackgroundImageFix"/>
<feColorMatrix in="SourceAlpha" type="matrix" values="0 0 0 0 0 0 0 0 0 0 0 0 0 0 0 0 0 0 127 0" result="hardAlpha"/>
<feOffset dy="1"/>
<feGaussianBlur stdDeviation="2"/>
<feComposite in2="hardAlpha" operator="out"/>
<feColorMatrix type="matrix" values="0 0 0 0 0.0470588 0 0 0 0 0.0470588 0 0 0 0 0.0509804 0 0 0 0.05 0"/>
<feBlend mode="normal" in2="BackgroundImageFix" result="effect1_dropShadow_1_393"/>
<feColorMatrix in="SourceAlpha" type="matrix" values="0 0 0 0 0 0 0 0 0 0 0 0 0 0 0 0 0 0 127 0" result="hardAlpha"/>
<feOffset dy="1"/>
<feGaussianBlur stdDeviation="2"/>
<feComposite in2="hardAlpha" operator="out"/>
<feColorMatrix type="matrix" values="0 0 0 0 0.0470588 0 0 0 0 0.0470588 0 0 0 0 0.0509804 0 0 0 0.1 0"/>
<feBlend mode="normal" in2="effect1_dropShadow_1_393" result="effect2_dropShadow_1_393"/>
<feBlend mode="normal" in="SourceGraphic" in2="effect2_dropShadow_1_393" result="shape"/>
</filter>
<clipPath id="clip0_1_393">
<rect width="20" height="20" fill="white" transform="translate(26 67)"/>
</clipPath>
</defs>
</svg>
