<svg width="980" height="980" viewBox="0 0 980 980" fill="none" xmlns="http://www.w3.org/2000/svg">
<circle cx="490" cy="490" r="490" fill="#2C2C2C"/>
<path d="M816 485C816 666.81 669.489 814 489 814C308.511 814 162 666.81 162 485C162 303.19 308.511 156 489 156C669.489 156 816 303.19 816 485Z" stroke="white" stroke-width="40"/>
<path d="M716 485C716 610.997 614.293 713 489 713C363.707 713 262 610.997 262 485C262 359.003 363.707 257 489 257C614.293 257 716 359.003 716 485Z" stroke="white" stroke-width="40"/>
<path d="M609 485C609 552.062 555.04 606 489 606C422.96 606 369 552.062 369 485C369 417.938 422.96 364 489 364C555.04 364 609 417.938 609 485Z" stroke="white" stroke-width="80"/>
</svg>
